<svg version="1.1" id="Layer_1" xmlns="http://www.w3.org/2000/svg" xmlns:xlink="http://www.w3.org/1999/xlink" x="0px" y="0px"
	 width="100%" viewBox="0 0 74 74" enable-background="new 0 0 74 74" xml:space="preserve">
<path fill="#FEFEFD" opacity="1.000000" stroke="none" 
	d="
M47.000000,75.000000 
	C31.333334,75.000000 16.166666,75.000000 1.000000,75.000000 
	C1.000000,50.333332 1.000000,25.666666 1.000000,1.000000 
	C25.666666,1.000000 50.333332,1.000000 75.000000,1.000000 
	C75.000000,25.666666 75.000000,50.333332 75.000000,75.000000 
	C65.833336,75.000000 56.666668,75.000000 47.000000,75.000000 
M40.155010,28.779930 
	C39.094910,30.688000 38.034805,32.596069 36.366116,34.089882 
	C29.404900,29.717463 21.655016,28.054897 13.592617,27.522861 
	C11.041464,27.354511 8.969570,27.786615 8.925440,31.146931 
	C8.816898,39.411854 9.861761,47.439121 13.634659,54.896164 
	C17.893299,63.313259 24.590942,67.779121 34.249096,68.299362 
	C39.134129,68.562492 44.061424,69.894173 48.749767,71.418762 
	C53.174473,72.857620 54.229111,72.640358 53.785519,67.834831 
	C53.269653,62.246277 52.078606,56.720043 51.949383,51.151253 
	C62.807686,48.778599 67.982727,41.206268 68.010284,27.650301 
	C68.037880,14.077479 67.385155,13.580643 54.497478,16.996553 
	C52.609520,11.111098 48.559818,7.010859 43.290012,4.180204 
	C42.102016,3.542077 39.446861,3.680001 38.671242,4.542961 
	C33.130127,10.708047 34.011524,22.585793 40.155010,28.779930 
z"/>
<path fill="#75C479" opacity="1.000000" stroke="none" 
	d="
M51.180584,51.166763 
	C52.078606,56.720043 53.269653,62.246277 53.785519,67.834831 
	C54.229111,72.640358 53.174473,72.857620 48.749767,71.418762 
	C44.061424,69.894173 39.134129,68.562492 34.249096,68.299362 
	C24.590942,67.779121 17.893299,63.313259 13.634659,54.896164 
	C9.861761,47.439121 8.816898,39.411854 8.925440,31.146931 
	C8.969570,27.786615 11.041464,27.354511 13.592617,27.522861 
	C21.655016,28.054897 29.404900,29.717463 36.681679,34.632187 
	C36.659439,36.475906 36.321636,37.777313 35.654984,38.948891 
	C28.906223,34.716084 21.932453,32.502945 13.963846,32.364429 
	C13.228078,39.743073 14.668343,46.419952 17.707727,52.816044 
	C20.924982,59.586430 26.392683,63.085617 33.763046,63.824131 
	C38.690933,64.317909 43.614185,64.858009 49.641884,65.493622 
	C48.416492,61.309189 47.197777,57.147545 45.936157,52.629547 
	C44.919716,50.834923 44.076889,49.283089 42.946060,47.981476 
	C40.410843,45.063385 38.611050,42.187408 42.400280,38.957394 
	C44.777702,41.849091 46.866913,44.553173 49.011909,47.582520 
	C49.771996,48.994110 50.476288,50.080437 51.180584,51.166763 
z"/>
<path fill="#75C379" opacity="1.000000" stroke="none" 
	d="
M40.124058,28.046284 
	C34.011524,22.585793 33.130127,10.708047 38.671242,4.542961 
	C39.446861,3.680001 42.102016,3.542077 43.290012,4.180204 
	C48.559818,7.010859 52.609520,11.111098 54.723534,17.711737 
	C55.102581,19.757711 55.255573,21.088503 55.329056,22.811058 
	C55.094055,24.683481 55.061947,26.189589 54.762733,27.640615 
	C53.029133,36.047726 51.463093,36.678062 45.059948,31.330296 
	C46.099072,29.985836 46.986732,28.839869 48.097488,27.983143 
	C50.917000,25.808449 51.822933,23.270205 50.014214,19.645626 
	C49.250164,14.262516 46.299271,11.058263 41.882553,8.889732 
	C38.308983,15.863750 38.653919,19.935459 43.026264,25.351269 
	C42.024590,26.470766 41.074326,27.258526 40.124058,28.046284 
z"/>
<path fill="#B7D775" opacity="1.000000" stroke="none" 
	d="
M55.408569,22.419296 
	C55.255573,21.088503 55.102581,19.757711 54.910652,18.038265 
	C67.385155,13.580643 68.037880,14.077479 68.010284,27.650301 
	C67.982727,41.206268 62.807686,48.778599 51.564983,51.159008 
	C50.476288,50.080437 49.771996,48.994110 49.399582,47.512154 
	C61.205681,44.776367 65.805511,35.204132 62.363338,20.081362 
	C60.020752,20.868853 57.714661,21.644073 55.408569,22.419296 
z"/>
<path fill="#B4D573" opacity="1.000000" stroke="none" 
	d="
M40.139534,28.413107 
	C41.074326,27.258526 42.024590,26.470766 43.354248,25.294411 
	C45.829086,23.279354 47.924522,21.652889 50.019962,20.026426 
	C51.822933,23.270205 50.917000,25.808449 48.097488,27.983143 
	C46.986732,28.839869 46.099072,29.985836 44.728279,31.501980 
	C43.601849,34.259171 42.856956,36.514477 42.112068,38.769783 
	C38.611050,42.187408 40.410843,45.063385 42.946060,47.981476 
	C44.076889,49.283089 44.919716,50.834923 45.616516,52.768406 
	C44.044956,53.963055 42.719055,54.611057 41.461010,55.371342 
	C37.299545,57.886295 36.176628,57.368172 35.960213,52.326027 
	C35.771042,47.918716 35.961239,43.495125 35.983837,39.078724 
	C36.321636,37.777313 36.659439,36.475906 36.985970,34.839317 
	C38.034805,32.596069 39.094910,30.688000 40.139534,28.413107 
z"/>
<path fill="#FBFDFA" opacity="1.000000" stroke="none" 
	d="
M35.654984,38.948891 
	C35.961239,43.495125 35.771042,47.918716 35.960213,52.326027 
	C36.176628,57.368172 37.299545,57.886295 41.461010,55.371342 
	C42.719055,54.611057 44.044956,53.963055 45.659416,53.124763 
	C47.197777,57.147545 48.416492,61.309189 49.641884,65.493622 
	C43.614185,64.858009 38.690933,64.317909 33.763046,63.824131 
	C26.392683,63.085617 20.924982,59.586430 17.707727,52.816044 
	C14.668343,46.419952 13.228078,39.743073 13.963846,32.364429 
	C21.932453,32.502945 28.906223,34.716084 35.654984,38.948891 
z"/>
<path fill="#FBFDFA" opacity="1.000000" stroke="none" 
	d="
M42.400280,38.957394 
	C42.856956,36.514477 43.601849,34.259171 44.678410,31.832180 
	C51.463093,36.678062 53.029133,36.047726 54.762733,27.640615 
	C55.061947,26.189589 55.094055,24.683481 55.329056,22.811058 
	C57.714661,21.644073 60.020752,20.868853 62.363338,20.081362 
	C65.805511,35.204132 61.205681,44.776367 49.343788,47.186893 
	C46.866913,44.553173 44.777702,41.849091 42.400280,38.957394 
z"/>
<path fill="#F8FCF8" opacity="1.000000" stroke="none" 
	d="
M50.014214,19.645626 
	C47.924522,21.652889 45.829086,23.279354 43.405663,24.962673 
	C38.653919,19.935459 38.308983,15.863750 41.882553,8.889732 
	C46.299271,11.058263 49.250164,14.262516 50.014214,19.645626 
z"/>
</svg>